<mxfile host="Electron" modified="2023-04-06T07:33:29.826Z" agent="Mozilla/5.0 (Windows NT 10.0; Win64; x64) AppleWebKit/537.36 (KHTML, like Gecko) draw.io/21.1.2 Chrome/106.0.5249.199 Electron/21.4.3 Safari/537.36" etag="sxf4dK-qiIUqqFLet5oe" version="21.1.2" type="device">
  <diagram name="Page-1" id="tWQN-asUoCm8YYXKyLHe">
    <mxGraphModel dx="2127" dy="1090" grid="1" gridSize="10" guides="1" tooltips="1" connect="1" arrows="1" fold="1" page="1" pageScale="1" pageWidth="827" pageHeight="1169" math="0" shadow="0">
      <root>
        <mxCell id="0" />
        <mxCell id="1" parent="0" />
        <mxCell id="fKbLTwSa_AMhw6pHvxHb-1" value="PERSON" style="swimlane;fontStyle=0;childLayout=stackLayout;horizontal=1;startSize=30;horizontalStack=0;resizeParent=1;resizeParentMax=0;resizeLast=0;collapsible=1;marginBottom=0;whiteSpace=wrap;html=1;fillColor=#f8cecc;strokeColor=#b85450;" parent="1" vertex="1">
          <mxGeometry x="108" y="240" width="140" height="150" as="geometry" />
        </mxCell>
        <mxCell id="fKbLTwSa_AMhw6pHvxHb-5" value="Name: string" style="text;strokeColor=none;fillColor=none;align=left;verticalAlign=middle;spacingLeft=4;spacingRight=4;overflow=hidden;points=[[0,0.5],[1,0.5]];portConstraint=eastwest;rotatable=0;whiteSpace=wrap;html=1;" parent="fKbLTwSa_AMhw6pHvxHb-1" vertex="1">
          <mxGeometry y="30" width="140" height="30" as="geometry" />
        </mxCell>
        <mxCell id="fKbLTwSa_AMhw6pHvxHb-7" value="Address: Address" style="text;strokeColor=none;fillColor=none;align=left;verticalAlign=middle;spacingLeft=4;spacingRight=4;overflow=hidden;points=[[0,0.5],[1,0.5]];portConstraint=eastwest;rotatable=0;whiteSpace=wrap;html=1;" parent="fKbLTwSa_AMhw6pHvxHb-1" vertex="1">
          <mxGeometry y="60" width="140" height="30" as="geometry" />
        </mxCell>
        <mxCell id="fKbLTwSa_AMhw6pHvxHb-6" value="+ create()" style="text;strokeColor=none;fillColor=none;align=left;verticalAlign=middle;spacingLeft=4;spacingRight=4;overflow=hidden;points=[[0,0.5],[1,0.5]];portConstraint=eastwest;rotatable=0;whiteSpace=wrap;html=1;" parent="fKbLTwSa_AMhw6pHvxHb-1" vertex="1">
          <mxGeometry y="90" width="140" height="30" as="geometry" />
        </mxCell>
        <mxCell id="fKbLTwSa_AMhw6pHvxHb-4" value="+ update()" style="text;strokeColor=none;fillColor=none;align=left;verticalAlign=middle;spacingLeft=4;spacingRight=4;overflow=hidden;points=[[0,0.5],[1,0.5]];portConstraint=eastwest;rotatable=0;whiteSpace=wrap;html=1;" parent="fKbLTwSa_AMhw6pHvxHb-1" vertex="1">
          <mxGeometry y="120" width="140" height="30" as="geometry" />
        </mxCell>
        <mxCell id="fKbLTwSa_AMhw6pHvxHb-16" value="" style="endArrow=none;html=1;rounded=0;exitX=0.014;exitY=-0.078;exitDx=0;exitDy=0;exitPerimeter=0;entryX=1.005;entryY=-0.078;entryDx=0;entryDy=0;entryPerimeter=0;" parent="fKbLTwSa_AMhw6pHvxHb-1" source="fKbLTwSa_AMhw6pHvxHb-6" target="fKbLTwSa_AMhw6pHvxHb-6" edge="1">
          <mxGeometry width="50" height="50" relative="1" as="geometry">
            <mxPoint x="170" y="260" as="sourcePoint" />
            <mxPoint x="220" y="210" as="targetPoint" />
          </mxGeometry>
        </mxCell>
        <mxCell id="fKbLTwSa_AMhw6pHvxHb-8" value="COACH" style="swimlane;fontStyle=0;childLayout=stackLayout;horizontal=1;startSize=30;horizontalStack=0;resizeParent=1;resizeParentMax=0;resizeLast=0;collapsible=1;marginBottom=0;whiteSpace=wrap;html=1;fillColor=#f8cecc;strokeColor=#b85450;" parent="1" vertex="1">
          <mxGeometry x="108" y="560" width="140" height="150" as="geometry" />
        </mxCell>
        <mxCell id="fKbLTwSa_AMhw6pHvxHb-10" value="PersonalRecord: string" style="text;strokeColor=none;fillColor=none;align=left;verticalAlign=middle;spacingLeft=4;spacingRight=4;overflow=hidden;points=[[0,0.5],[1,0.5]];portConstraint=eastwest;rotatable=0;whiteSpace=wrap;html=1;" parent="fKbLTwSa_AMhw6pHvxHb-8" vertex="1">
          <mxGeometry y="30" width="140" height="30" as="geometry" />
        </mxCell>
        <mxCell id="fKbLTwSa_AMhw6pHvxHb-13" value="Experiences: float" style="text;strokeColor=none;fillColor=none;align=left;verticalAlign=middle;spacingLeft=4;spacingRight=4;overflow=hidden;points=[[0,0.5],[1,0.5]];portConstraint=eastwest;rotatable=0;whiteSpace=wrap;html=1;" parent="fKbLTwSa_AMhw6pHvxHb-8" vertex="1">
          <mxGeometry y="60" width="140" height="30" as="geometry" />
        </mxCell>
        <mxCell id="Ky7gmDlUNVWXy1pPphro-2" value="" style="endArrow=none;html=1;rounded=0;exitX=0.014;exitY=-0.078;exitDx=0;exitDy=0;exitPerimeter=0;entryX=1.005;entryY=-0.078;entryDx=0;entryDy=0;entryPerimeter=0;" parent="fKbLTwSa_AMhw6pHvxHb-8" edge="1">
          <mxGeometry width="50" height="50" relative="1" as="geometry">
            <mxPoint x="1" y="90" as="sourcePoint" />
            <mxPoint x="140" y="90" as="targetPoint" />
          </mxGeometry>
        </mxCell>
        <mxCell id="fKbLTwSa_AMhw6pHvxHb-15" value="+ create()" style="text;strokeColor=none;fillColor=none;align=left;verticalAlign=middle;spacingLeft=4;spacingRight=4;overflow=hidden;points=[[0,0.5],[1,0.5]];portConstraint=eastwest;rotatable=0;whiteSpace=wrap;html=1;" parent="fKbLTwSa_AMhw6pHvxHb-8" vertex="1">
          <mxGeometry y="90" width="140" height="30" as="geometry" />
        </mxCell>
        <mxCell id="fKbLTwSa_AMhw6pHvxHb-14" value="+ update()" style="text;strokeColor=none;fillColor=none;align=left;verticalAlign=middle;spacingLeft=4;spacingRight=4;overflow=hidden;points=[[0,0.5],[1,0.5]];portConstraint=eastwest;rotatable=0;whiteSpace=wrap;html=1;" parent="fKbLTwSa_AMhw6pHvxHb-8" vertex="1">
          <mxGeometry y="120" width="140" height="30" as="geometry" />
        </mxCell>
        <mxCell id="fKbLTwSa_AMhw6pHvxHb-17" value="FAN" style="swimlane;fontStyle=0;childLayout=stackLayout;horizontal=1;startSize=30;horizontalStack=0;resizeParent=1;resizeParentMax=0;resizeLast=0;collapsible=1;marginBottom=0;whiteSpace=wrap;html=1;fillColor=#f8cecc;strokeColor=#b85450;" parent="1" vertex="1">
          <mxGeometry x="368" y="90" width="140" height="180" as="geometry" />
        </mxCell>
        <mxCell id="fKbLTwSa_AMhw6pHvxHb-20" value="Address: Address" style="text;strokeColor=none;fillColor=none;align=left;verticalAlign=middle;spacingLeft=4;spacingRight=4;overflow=hidden;points=[[0,0.5],[1,0.5]];portConstraint=eastwest;rotatable=0;whiteSpace=wrap;html=1;" parent="fKbLTwSa_AMhw6pHvxHb-17" vertex="1">
          <mxGeometry y="30" width="140" height="30" as="geometry" />
        </mxCell>
        <mxCell id="fKbLTwSa_AMhw6pHvxHb-21" value="Name: string" style="text;strokeColor=none;fillColor=none;align=left;verticalAlign=middle;spacingLeft=4;spacingRight=4;overflow=hidden;points=[[0,0.5],[1,0.5]];portConstraint=eastwest;rotatable=0;whiteSpace=wrap;html=1;" parent="fKbLTwSa_AMhw6pHvxHb-17" vertex="1">
          <mxGeometry y="60" width="140" height="30" as="geometry" />
        </mxCell>
        <mxCell id="hNPoDgTNuxjrgSZhUWBY-5" value="FauvouritePlayer: string" style="text;strokeColor=none;fillColor=none;align=left;verticalAlign=middle;spacingLeft=4;spacingRight=4;overflow=hidden;points=[[0,0.5],[1,0.5]];portConstraint=eastwest;rotatable=0;whiteSpace=wrap;html=1;" parent="fKbLTwSa_AMhw6pHvxHb-17" vertex="1">
          <mxGeometry y="90" width="140" height="30" as="geometry" />
        </mxCell>
        <mxCell id="fKbLTwSa_AMhw6pHvxHb-22" value="+ add()" style="text;strokeColor=none;fillColor=none;align=left;verticalAlign=middle;spacingLeft=4;spacingRight=4;overflow=hidden;points=[[0,0.5],[1,0.5]];portConstraint=eastwest;rotatable=0;whiteSpace=wrap;html=1;" parent="fKbLTwSa_AMhw6pHvxHb-17" vertex="1">
          <mxGeometry y="120" width="140" height="30" as="geometry" />
        </mxCell>
        <mxCell id="fKbLTwSa_AMhw6pHvxHb-23" value="+ update()" style="text;strokeColor=none;fillColor=none;align=left;verticalAlign=middle;spacingLeft=4;spacingRight=4;overflow=hidden;points=[[0,0.5],[1,0.5]];portConstraint=eastwest;rotatable=0;whiteSpace=wrap;html=1;" parent="fKbLTwSa_AMhw6pHvxHb-17" vertex="1">
          <mxGeometry y="150" width="140" height="30" as="geometry" />
        </mxCell>
        <mxCell id="hNPoDgTNuxjrgSZhUWBY-6" value="" style="endArrow=none;html=1;rounded=0;entryX=1.004;entryY=-0.04;entryDx=0;entryDy=0;entryPerimeter=0;exitX=-0.013;exitY=-0.067;exitDx=0;exitDy=0;exitPerimeter=0;" parent="fKbLTwSa_AMhw6pHvxHb-17" source="fKbLTwSa_AMhw6pHvxHb-22" target="fKbLTwSa_AMhw6pHvxHb-22" edge="1">
          <mxGeometry width="50" height="50" relative="1" as="geometry">
            <mxPoint x="32" y="320" as="sourcePoint" />
            <mxPoint x="82" y="270" as="targetPoint" />
          </mxGeometry>
        </mxCell>
        <mxCell id="fKbLTwSa_AMhw6pHvxHb-25" value="PLAYER" style="swimlane;fontStyle=0;childLayout=stackLayout;horizontal=1;startSize=30;horizontalStack=0;resizeParent=1;resizeParentMax=0;resizeLast=0;collapsible=1;marginBottom=0;whiteSpace=wrap;html=1;fillColor=#f8cecc;strokeColor=#b85450;" parent="1" vertex="1">
          <mxGeometry x="368" y="400" width="140" height="180" as="geometry" />
        </mxCell>
        <mxCell id="fKbLTwSa_AMhw6pHvxHb-26" value="UniformSize: int" style="text;strokeColor=none;fillColor=none;align=left;verticalAlign=middle;spacingLeft=4;spacingRight=4;overflow=hidden;points=[[0,0.5],[1,0.5]];portConstraint=eastwest;rotatable=0;whiteSpace=wrap;html=1;" parent="fKbLTwSa_AMhw6pHvxHb-25" vertex="1">
          <mxGeometry y="30" width="140" height="30" as="geometry" />
        </mxCell>
        <mxCell id="fKbLTwSa_AMhw6pHvxHb-27" value="UniformNum: int&amp;nbsp;" style="text;strokeColor=none;fillColor=none;align=left;verticalAlign=middle;spacingLeft=4;spacingRight=4;overflow=hidden;points=[[0,0.5],[1,0.5]];portConstraint=eastwest;rotatable=0;whiteSpace=wrap;html=1;" parent="fKbLTwSa_AMhw6pHvxHb-25" vertex="1">
          <mxGeometry y="60" width="140" height="30" as="geometry" />
        </mxCell>
        <mxCell id="fKbLTwSa_AMhw6pHvxHb-28" value="ShoeSize: int" style="text;strokeColor=none;fillColor=none;align=left;verticalAlign=middle;spacingLeft=4;spacingRight=4;overflow=hidden;points=[[0,0.5],[1,0.5]];portConstraint=eastwest;rotatable=0;whiteSpace=wrap;html=1;" parent="fKbLTwSa_AMhw6pHvxHb-25" vertex="1">
          <mxGeometry y="90" width="140" height="30" as="geometry" />
        </mxCell>
        <mxCell id="fKbLTwSa_AMhw6pHvxHb-30" value="+ create()" style="text;strokeColor=none;fillColor=none;align=left;verticalAlign=middle;spacingLeft=4;spacingRight=4;overflow=hidden;points=[[0,0.5],[1,0.5]];portConstraint=eastwest;rotatable=0;whiteSpace=wrap;html=1;" parent="fKbLTwSa_AMhw6pHvxHb-25" vertex="1">
          <mxGeometry y="120" width="140" height="30" as="geometry" />
        </mxCell>
        <mxCell id="fKbLTwSa_AMhw6pHvxHb-31" value="+ update()" style="text;strokeColor=none;fillColor=none;align=left;verticalAlign=middle;spacingLeft=4;spacingRight=4;overflow=hidden;points=[[0,0.5],[1,0.5]];portConstraint=eastwest;rotatable=0;whiteSpace=wrap;html=1;" parent="fKbLTwSa_AMhw6pHvxHb-25" vertex="1">
          <mxGeometry y="150" width="140" height="30" as="geometry" />
        </mxCell>
        <mxCell id="fKbLTwSa_AMhw6pHvxHb-32" value="" style="endArrow=none;html=1;rounded=0;exitX=0.014;exitY=-0.078;exitDx=0;exitDy=0;exitPerimeter=0;entryX=1.005;entryY=-0.078;entryDx=0;entryDy=0;entryPerimeter=0;" parent="fKbLTwSa_AMhw6pHvxHb-25" source="fKbLTwSa_AMhw6pHvxHb-30" target="fKbLTwSa_AMhw6pHvxHb-30" edge="1">
          <mxGeometry width="50" height="50" relative="1" as="geometry">
            <mxPoint x="170" y="260" as="sourcePoint" />
            <mxPoint x="220" y="210" as="targetPoint" />
          </mxGeometry>
        </mxCell>
        <mxCell id="fKbLTwSa_AMhw6pHvxHb-33" value="TEAM" style="swimlane;fontStyle=0;childLayout=stackLayout;horizontal=1;startSize=30;horizontalStack=0;resizeParent=1;resizeParentMax=0;resizeLast=0;collapsible=1;marginBottom=0;whiteSpace=wrap;html=1;fillColor=#f8cecc;strokeColor=#b85450;" parent="1" vertex="1">
          <mxGeometry x="368" y="650" width="140" height="210" as="geometry" />
        </mxCell>
        <mxCell id="fKbLTwSa_AMhw6pHvxHb-36" value="Name: string" style="text;strokeColor=none;fillColor=none;align=left;verticalAlign=middle;spacingLeft=4;spacingRight=4;overflow=hidden;points=[[0,0.5],[1,0.5]];portConstraint=eastwest;rotatable=0;whiteSpace=wrap;html=1;" parent="fKbLTwSa_AMhw6pHvxHb-33" vertex="1">
          <mxGeometry y="30" width="140" height="30" as="geometry" />
        </mxCell>
        <mxCell id="fKbLTwSa_AMhw6pHvxHb-37" value="Email: string" style="text;strokeColor=none;fillColor=none;align=left;verticalAlign=middle;spacingLeft=4;spacingRight=4;overflow=hidden;points=[[0,0.5],[1,0.5]];portConstraint=eastwest;rotatable=0;whiteSpace=wrap;html=1;" parent="fKbLTwSa_AMhw6pHvxHb-33" vertex="1">
          <mxGeometry y="60" width="140" height="30" as="geometry" />
        </mxCell>
        <mxCell id="hNPoDgTNuxjrgSZhUWBY-8" value="Location: Address" style="text;strokeColor=none;fillColor=none;align=left;verticalAlign=middle;spacingLeft=4;spacingRight=4;overflow=hidden;points=[[0,0.5],[1,0.5]];portConstraint=eastwest;rotatable=0;whiteSpace=wrap;html=1;" parent="fKbLTwSa_AMhw6pHvxHb-33" vertex="1">
          <mxGeometry y="90" width="140" height="30" as="geometry" />
        </mxCell>
        <mxCell id="hNPoDgTNuxjrgSZhUWBY-7" value="Phone: int" style="text;strokeColor=none;fillColor=none;align=left;verticalAlign=middle;spacingLeft=4;spacingRight=4;overflow=hidden;points=[[0,0.5],[1,0.5]];portConstraint=eastwest;rotatable=0;whiteSpace=wrap;html=1;" parent="fKbLTwSa_AMhw6pHvxHb-33" vertex="1">
          <mxGeometry y="120" width="140" height="30" as="geometry" />
        </mxCell>
        <mxCell id="fKbLTwSa_AMhw6pHvxHb-38" value="+ create()" style="text;strokeColor=none;fillColor=none;align=left;verticalAlign=middle;spacingLeft=4;spacingRight=4;overflow=hidden;points=[[0,0.5],[1,0.5]];portConstraint=eastwest;rotatable=0;whiteSpace=wrap;html=1;" parent="fKbLTwSa_AMhw6pHvxHb-33" vertex="1">
          <mxGeometry y="150" width="140" height="30" as="geometry" />
        </mxCell>
        <mxCell id="fKbLTwSa_AMhw6pHvxHb-39" value="+ update()" style="text;strokeColor=none;fillColor=none;align=left;verticalAlign=middle;spacingLeft=4;spacingRight=4;overflow=hidden;points=[[0,0.5],[1,0.5]];portConstraint=eastwest;rotatable=0;whiteSpace=wrap;html=1;" parent="fKbLTwSa_AMhw6pHvxHb-33" vertex="1">
          <mxGeometry y="180" width="140" height="30" as="geometry" />
        </mxCell>
        <mxCell id="fKbLTwSa_AMhw6pHvxHb-40" value="" style="endArrow=none;html=1;rounded=0;exitX=0.014;exitY=-0.078;exitDx=0;exitDy=0;exitPerimeter=0;entryX=1.005;entryY=-0.078;entryDx=0;entryDy=0;entryPerimeter=0;" parent="fKbLTwSa_AMhw6pHvxHb-33" source="fKbLTwSa_AMhw6pHvxHb-38" target="fKbLTwSa_AMhw6pHvxHb-38" edge="1">
          <mxGeometry width="50" height="50" relative="1" as="geometry">
            <mxPoint x="170" y="260" as="sourcePoint" />
            <mxPoint x="220" y="210" as="targetPoint" />
          </mxGeometry>
        </mxCell>
        <mxCell id="fKbLTwSa_AMhw6pHvxHb-41" value="TASKS" style="swimlane;fontStyle=0;childLayout=stackLayout;horizontal=1;startSize=30;horizontalStack=0;resizeParent=1;resizeParentMax=0;resizeLast=0;collapsible=1;marginBottom=0;whiteSpace=wrap;html=1;fillColor=#f8cecc;strokeColor=#b85450;" parent="1" vertex="1">
          <mxGeometry x="618" y="160" width="140" height="150" as="geometry" />
        </mxCell>
        <mxCell id="fKbLTwSa_AMhw6pHvxHb-42" value="TaskNumber: int" style="text;strokeColor=none;fillColor=none;align=left;verticalAlign=middle;spacingLeft=4;spacingRight=4;overflow=hidden;points=[[0,0.5],[1,0.5]];portConstraint=eastwest;rotatable=0;whiteSpace=wrap;html=1;" parent="fKbLTwSa_AMhw6pHvxHb-41" vertex="1">
          <mxGeometry y="30" width="140" height="30" as="geometry" />
        </mxCell>
        <mxCell id="fKbLTwSa_AMhw6pHvxHb-45" value="TaskData: string" style="text;strokeColor=none;fillColor=none;align=left;verticalAlign=middle;spacingLeft=4;spacingRight=4;overflow=hidden;points=[[0,0.5],[1,0.5]];portConstraint=eastwest;rotatable=0;whiteSpace=wrap;html=1;" parent="fKbLTwSa_AMhw6pHvxHb-41" vertex="1">
          <mxGeometry y="60" width="140" height="30" as="geometry" />
        </mxCell>
        <mxCell id="fKbLTwSa_AMhw6pHvxHb-46" value="+ addTasks()" style="text;strokeColor=none;fillColor=none;align=left;verticalAlign=middle;spacingLeft=4;spacingRight=4;overflow=hidden;points=[[0,0.5],[1,0.5]];portConstraint=eastwest;rotatable=0;whiteSpace=wrap;html=1;" parent="fKbLTwSa_AMhw6pHvxHb-41" vertex="1">
          <mxGeometry y="90" width="140" height="30" as="geometry" />
        </mxCell>
        <mxCell id="fKbLTwSa_AMhw6pHvxHb-47" value="+ updateTasks()" style="text;strokeColor=none;fillColor=none;align=left;verticalAlign=middle;spacingLeft=4;spacingRight=4;overflow=hidden;points=[[0,0.5],[1,0.5]];portConstraint=eastwest;rotatable=0;whiteSpace=wrap;html=1;" parent="fKbLTwSa_AMhw6pHvxHb-41" vertex="1">
          <mxGeometry y="120" width="140" height="30" as="geometry" />
        </mxCell>
        <mxCell id="fKbLTwSa_AMhw6pHvxHb-48" value="" style="endArrow=none;html=1;rounded=0;exitX=0.014;exitY=-0.078;exitDx=0;exitDy=0;exitPerimeter=0;entryX=1.005;entryY=-0.078;entryDx=0;entryDy=0;entryPerimeter=0;" parent="fKbLTwSa_AMhw6pHvxHb-41" source="fKbLTwSa_AMhw6pHvxHb-46" target="fKbLTwSa_AMhw6pHvxHb-46" edge="1">
          <mxGeometry width="50" height="50" relative="1" as="geometry">
            <mxPoint x="170" y="260" as="sourcePoint" />
            <mxPoint x="220" y="210" as="targetPoint" />
          </mxGeometry>
        </mxCell>
        <mxCell id="fKbLTwSa_AMhw6pHvxHb-49" value="STADIUM" style="swimlane;fontStyle=0;childLayout=stackLayout;horizontal=1;startSize=30;horizontalStack=0;resizeParent=1;resizeParentMax=0;resizeLast=0;collapsible=1;marginBottom=0;whiteSpace=wrap;html=1;fillColor=#f8cecc;strokeColor=#b85450;" parent="1" vertex="1">
          <mxGeometry x="660" y="680" width="140" height="180" as="geometry" />
        </mxCell>
        <mxCell id="fKbLTwSa_AMhw6pHvxHb-50" value="Name: string" style="text;strokeColor=none;fillColor=none;align=left;verticalAlign=middle;spacingLeft=4;spacingRight=4;overflow=hidden;points=[[0,0.5],[1,0.5]];portConstraint=eastwest;rotatable=0;whiteSpace=wrap;html=1;" parent="fKbLTwSa_AMhw6pHvxHb-49" vertex="1">
          <mxGeometry y="30" width="140" height="30" as="geometry" />
        </mxCell>
        <mxCell id="hNPoDgTNuxjrgSZhUWBY-11" value="Address: Address" style="text;strokeColor=none;fillColor=none;align=left;verticalAlign=middle;spacingLeft=4;spacingRight=4;overflow=hidden;points=[[0,0.5],[1,0.5]];portConstraint=eastwest;rotatable=0;whiteSpace=wrap;html=1;" parent="fKbLTwSa_AMhw6pHvxHb-49" vertex="1">
          <mxGeometry y="60" width="140" height="30" as="geometry" />
        </mxCell>
        <mxCell id="fKbLTwSa_AMhw6pHvxHb-51" value="Capacity: float" style="text;strokeColor=none;fillColor=none;align=left;verticalAlign=middle;spacingLeft=4;spacingRight=4;overflow=hidden;points=[[0,0.5],[1,0.5]];portConstraint=eastwest;rotatable=0;whiteSpace=wrap;html=1;" parent="fKbLTwSa_AMhw6pHvxHb-49" vertex="1">
          <mxGeometry y="90" width="140" height="30" as="geometry" />
        </mxCell>
        <mxCell id="hNPoDgTNuxjrgSZhUWBY-14" value="" style="endArrow=none;html=1;rounded=0;exitX=0.014;exitY=-0.078;exitDx=0;exitDy=0;exitPerimeter=0;entryX=1.005;entryY=-0.078;entryDx=0;entryDy=0;entryPerimeter=0;" parent="fKbLTwSa_AMhw6pHvxHb-49" edge="1">
          <mxGeometry width="50" height="50" relative="1" as="geometry">
            <mxPoint x="1" y="120" as="sourcePoint" />
            <mxPoint x="140" y="120" as="targetPoint" />
          </mxGeometry>
        </mxCell>
        <mxCell id="hNPoDgTNuxjrgSZhUWBY-13" value="+ update()" style="text;strokeColor=none;fillColor=none;align=left;verticalAlign=middle;spacingLeft=4;spacingRight=4;overflow=hidden;points=[[0,0.5],[1,0.5]];portConstraint=eastwest;rotatable=0;whiteSpace=wrap;html=1;" parent="fKbLTwSa_AMhw6pHvxHb-49" vertex="1">
          <mxGeometry y="120" width="140" height="30" as="geometry" />
        </mxCell>
        <mxCell id="hNPoDgTNuxjrgSZhUWBY-12" value="+ create()" style="text;strokeColor=none;fillColor=none;align=left;verticalAlign=middle;spacingLeft=4;spacingRight=4;overflow=hidden;points=[[0,0.5],[1,0.5]];portConstraint=eastwest;rotatable=0;whiteSpace=wrap;html=1;" parent="fKbLTwSa_AMhw6pHvxHb-49" vertex="1">
          <mxGeometry y="150" width="140" height="30" as="geometry" />
        </mxCell>
        <mxCell id="fKbLTwSa_AMhw6pHvxHb-57" value="GAME" style="swimlane;fontStyle=0;childLayout=stackLayout;horizontal=1;startSize=30;horizontalStack=0;resizeParent=1;resizeParentMax=0;resizeLast=0;collapsible=1;marginBottom=0;whiteSpace=wrap;html=1;fillColor=#f8cecc;strokeColor=#b85450;" parent="1" vertex="1">
          <mxGeometry x="660" y="940" width="140" height="210" as="geometry" />
        </mxCell>
        <mxCell id="fKbLTwSa_AMhw6pHvxHb-58" value="Number: int" style="text;strokeColor=none;fillColor=none;align=left;verticalAlign=middle;spacingLeft=4;spacingRight=4;overflow=hidden;points=[[0,0.5],[1,0.5]];portConstraint=eastwest;rotatable=0;whiteSpace=wrap;html=1;" parent="fKbLTwSa_AMhw6pHvxHb-57" vertex="1">
          <mxGeometry y="30" width="140" height="30" as="geometry" />
        </mxCell>
        <mxCell id="fKbLTwSa_AMhw6pHvxHb-59" value="Attendance: int" style="text;strokeColor=none;fillColor=none;align=left;verticalAlign=middle;spacingLeft=4;spacingRight=4;overflow=hidden;points=[[0,0.5],[1,0.5]];portConstraint=eastwest;rotatable=0;whiteSpace=wrap;html=1;" parent="fKbLTwSa_AMhw6pHvxHb-57" vertex="1">
          <mxGeometry y="60" width="140" height="30" as="geometry" />
        </mxCell>
        <mxCell id="fKbLTwSa_AMhw6pHvxHb-60" value="Score: string" style="text;strokeColor=none;fillColor=none;align=left;verticalAlign=middle;spacingLeft=4;spacingRight=4;overflow=hidden;points=[[0,0.5],[1,0.5]];portConstraint=eastwest;rotatable=0;whiteSpace=wrap;html=1;" parent="fKbLTwSa_AMhw6pHvxHb-57" vertex="1">
          <mxGeometry y="90" width="140" height="30" as="geometry" />
        </mxCell>
        <mxCell id="fKbLTwSa_AMhw6pHvxHb-61" value="Date: datetime" style="text;strokeColor=none;fillColor=none;align=left;verticalAlign=middle;spacingLeft=4;spacingRight=4;overflow=hidden;points=[[0,0.5],[1,0.5]];portConstraint=eastwest;rotatable=0;whiteSpace=wrap;html=1;" parent="fKbLTwSa_AMhw6pHvxHb-57" vertex="1">
          <mxGeometry y="120" width="140" height="30" as="geometry" />
        </mxCell>
        <mxCell id="fKbLTwSa_AMhw6pHvxHb-62" value="+ create()" style="text;strokeColor=none;fillColor=none;align=left;verticalAlign=middle;spacingLeft=4;spacingRight=4;overflow=hidden;points=[[0,0.5],[1,0.5]];portConstraint=eastwest;rotatable=0;whiteSpace=wrap;html=1;" parent="fKbLTwSa_AMhw6pHvxHb-57" vertex="1">
          <mxGeometry y="150" width="140" height="30" as="geometry" />
        </mxCell>
        <mxCell id="fKbLTwSa_AMhw6pHvxHb-63" value="+ update()" style="text;strokeColor=none;fillColor=none;align=left;verticalAlign=middle;spacingLeft=4;spacingRight=4;overflow=hidden;points=[[0,0.5],[1,0.5]];portConstraint=eastwest;rotatable=0;whiteSpace=wrap;html=1;" parent="fKbLTwSa_AMhw6pHvxHb-57" vertex="1">
          <mxGeometry y="180" width="140" height="30" as="geometry" />
        </mxCell>
        <mxCell id="fKbLTwSa_AMhw6pHvxHb-64" value="" style="endArrow=none;html=1;rounded=0;exitX=0.014;exitY=-0.078;exitDx=0;exitDy=0;exitPerimeter=0;entryX=1.005;entryY=-0.078;entryDx=0;entryDy=0;entryPerimeter=0;" parent="fKbLTwSa_AMhw6pHvxHb-57" source="fKbLTwSa_AMhw6pHvxHb-62" target="fKbLTwSa_AMhw6pHvxHb-62" edge="1">
          <mxGeometry width="50" height="50" relative="1" as="geometry">
            <mxPoint x="170" y="260" as="sourcePoint" />
            <mxPoint x="220" y="210" as="targetPoint" />
          </mxGeometry>
        </mxCell>
        <mxCell id="Ky7gmDlUNVWXy1pPphro-25" value="&lt;div style=&quot;text-align: left; font-size: 15px;&quot;&gt;&lt;span style=&quot;background-color: initial;&quot;&gt;&lt;font style=&quot;font-size: 15px;&quot;&gt;Trương Văn Khải - 21520274&lt;/font&gt;&lt;/span&gt;&lt;/div&gt;&lt;div style=&quot;text-align: left; font-size: 15px;&quot;&gt;&lt;span style=&quot;background-color: initial;&quot;&gt;&lt;font style=&quot;font-size: 15px;&quot;&gt;Lê Yến Nhi - 21522427&lt;/font&gt;&lt;/span&gt;&lt;/div&gt;&lt;div style=&quot;text-align: left; font-size: 15px;&quot;&gt;&lt;span style=&quot;background-color: initial;&quot;&gt;&lt;font style=&quot;font-size: 15px;&quot;&gt;Ngô Phúc Danh - 21521924&lt;/font&gt;&lt;/span&gt;&lt;/div&gt;&lt;div style=&quot;text-align: left; font-size: 15px;&quot;&gt;&lt;span style=&quot;background-color: initial;&quot;&gt;&lt;font style=&quot;font-size: 15px;&quot;&gt;Lê Ngô Minh Đức - 21520195&lt;/font&gt;&lt;/span&gt;&lt;/div&gt;" style="text;html=1;strokeColor=none;fillColor=none;align=center;verticalAlign=middle;whiteSpace=wrap;rounded=0;" parent="1" vertex="1">
          <mxGeometry width="280" height="80" as="geometry" />
        </mxCell>
        <mxCell id="hNPoDgTNuxjrgSZhUWBY-16" value="" style="endArrow=none;html=1;rounded=0;entryX=-0.019;entryY=0.051;entryDx=0;entryDy=0;entryPerimeter=0;" parent="1" target="fKbLTwSa_AMhw6pHvxHb-17" edge="1">
          <mxGeometry width="50" height="50" relative="1" as="geometry">
            <mxPoint x="180" y="240" as="sourcePoint" />
            <mxPoint x="230" y="190" as="targetPoint" />
            <Array as="points">
              <mxPoint x="180" y="100" />
            </Array>
          </mxGeometry>
        </mxCell>
        <mxCell id="hNPoDgTNuxjrgSZhUWBY-17" value="" style="endArrow=none;html=1;rounded=0;exitX=0.5;exitY=0;exitDx=0;exitDy=0;" parent="1" source="fKbLTwSa_AMhw6pHvxHb-8" edge="1">
          <mxGeometry width="50" height="50" relative="1" as="geometry">
            <mxPoint x="130" y="440" as="sourcePoint" />
            <mxPoint x="180" y="390" as="targetPoint" />
          </mxGeometry>
        </mxCell>
        <mxCell id="hNPoDgTNuxjrgSZhUWBY-18" value="" style="endArrow=none;html=1;rounded=0;entryX=0.5;entryY=0;entryDx=0;entryDy=0;" parent="1" target="fKbLTwSa_AMhw6pHvxHb-25" edge="1">
          <mxGeometry width="50" height="50" relative="1" as="geometry">
            <mxPoint x="248" y="350" as="sourcePoint" />
            <mxPoint x="490" y="350" as="targetPoint" />
            <Array as="points">
              <mxPoint x="438" y="350" />
            </Array>
          </mxGeometry>
        </mxCell>
        <mxCell id="hNPoDgTNuxjrgSZhUWBY-19" value="" style="endArrow=classic;html=1;rounded=0;exitX=1.01;exitY=0.087;exitDx=0;exitDy=0;exitPerimeter=0;" parent="1" source="fKbLTwSa_AMhw6pHvxHb-17" edge="1">
          <mxGeometry width="50" height="50" relative="1" as="geometry">
            <mxPoint x="540" y="220" as="sourcePoint" />
            <mxPoint x="509" y="670" as="targetPoint" />
            <Array as="points">
              <mxPoint x="540" y="106" />
              <mxPoint x="540" y="670" />
            </Array>
          </mxGeometry>
        </mxCell>
        <mxCell id="hNPoDgTNuxjrgSZhUWBY-20" value="SUPPORT" style="edgeLabel;html=1;align=center;verticalAlign=middle;resizable=0;points=[];" parent="hNPoDgTNuxjrgSZhUWBY-19" vertex="1" connectable="0">
          <mxGeometry x="-0.2922" y="-3" relative="1" as="geometry">
            <mxPoint as="offset" />
          </mxGeometry>
        </mxCell>
        <mxCell id="hNPoDgTNuxjrgSZhUWBY-21" value="" style="endArrow=classic;html=1;rounded=0;exitX=1.01;exitY=0.107;exitDx=0;exitDy=0;exitPerimeter=0;entryX=-0.007;entryY=0.082;entryDx=0;entryDy=0;entryPerimeter=0;" parent="1" source="fKbLTwSa_AMhw6pHvxHb-8" target="fKbLTwSa_AMhw6pHvxHb-33" edge="1">
          <mxGeometry width="50" height="50" relative="1" as="geometry">
            <mxPoint x="340" y="640" as="sourcePoint" />
            <mxPoint x="390" y="590" as="targetPoint" />
            <Array as="points">
              <mxPoint x="280" y="667" />
            </Array>
          </mxGeometry>
        </mxCell>
        <mxCell id="hNPoDgTNuxjrgSZhUWBY-23" value="MANAGE" style="edgeLabel;html=1;align=center;verticalAlign=middle;resizable=0;points=[];" parent="hNPoDgTNuxjrgSZhUWBY-21" vertex="1" connectable="0">
          <mxGeometry x="0.3593" relative="1" as="geometry">
            <mxPoint as="offset" />
          </mxGeometry>
        </mxCell>
        <mxCell id="hNPoDgTNuxjrgSZhUWBY-24" value="" style="endArrow=classic;html=1;rounded=0;exitX=0.514;exitY=1;exitDx=0;exitDy=0;exitPerimeter=0;entryX=0.5;entryY=0;entryDx=0;entryDy=0;" parent="1" source="fKbLTwSa_AMhw6pHvxHb-31" target="fKbLTwSa_AMhw6pHvxHb-33" edge="1">
          <mxGeometry width="50" height="50" relative="1" as="geometry">
            <mxPoint x="340" y="670" as="sourcePoint" />
            <mxPoint x="390" y="620" as="targetPoint" />
          </mxGeometry>
        </mxCell>
        <mxCell id="hNPoDgTNuxjrgSZhUWBY-25" value="PLAY FOR" style="edgeLabel;html=1;align=center;verticalAlign=middle;resizable=0;points=[];" parent="hNPoDgTNuxjrgSZhUWBY-24" vertex="1" connectable="0">
          <mxGeometry x="-0.3478" y="-1" relative="1" as="geometry">
            <mxPoint as="offset" />
          </mxGeometry>
        </mxCell>
        <mxCell id="hNPoDgTNuxjrgSZhUWBY-26" value="" style="endArrow=classic;html=1;rounded=0;entryX=0.01;entryY=1.067;entryDx=0;entryDy=0;entryPerimeter=0;" parent="1" target="fKbLTwSa_AMhw6pHvxHb-36" edge="1">
          <mxGeometry width="50" height="50" relative="1" as="geometry">
            <mxPoint x="508" y="710" as="sourcePoint" />
            <mxPoint x="310" y="700" as="targetPoint" />
            <Array as="points">
              <mxPoint x="560" y="710" />
              <mxPoint x="558" y="910" />
              <mxPoint x="310" y="910" />
              <mxPoint x="310" y="712" />
            </Array>
          </mxGeometry>
        </mxCell>
        <mxCell id="hNPoDgTNuxjrgSZhUWBY-27" value="PLAY AGAINST" style="edgeLabel;html=1;align=center;verticalAlign=middle;resizable=0;points=[];" parent="hNPoDgTNuxjrgSZhUWBY-26" vertex="1" connectable="0">
          <mxGeometry x="-0.0409" relative="1" as="geometry">
            <mxPoint as="offset" />
          </mxGeometry>
        </mxCell>
        <mxCell id="hNPoDgTNuxjrgSZhUWBY-28" value="" style="endArrow=classic;html=1;rounded=0;exitX=1;exitY=0.5;exitDx=0;exitDy=0;entryX=-0.007;entryY=0.093;entryDx=0;entryDy=0;entryPerimeter=0;" parent="1" source="fKbLTwSa_AMhw6pHvxHb-36" target="fKbLTwSa_AMhw6pHvxHb-49" edge="1">
          <mxGeometry width="50" height="50" relative="1" as="geometry">
            <mxPoint x="610" y="670" as="sourcePoint" />
            <mxPoint x="660" y="620" as="targetPoint" />
          </mxGeometry>
        </mxCell>
        <mxCell id="hNPoDgTNuxjrgSZhUWBY-29" value="PRACTICE" style="edgeLabel;html=1;align=center;verticalAlign=middle;resizable=0;points=[];" parent="hNPoDgTNuxjrgSZhUWBY-28" vertex="1" connectable="0">
          <mxGeometry x="0.171" y="-2" relative="1" as="geometry">
            <mxPoint as="offset" />
          </mxGeometry>
        </mxCell>
        <mxCell id="hNPoDgTNuxjrgSZhUWBY-30" value="" style="endArrow=classic;html=1;rounded=0;exitX=0.461;exitY=1.053;exitDx=0;exitDy=0;exitPerimeter=0;entryX=0.45;entryY=0.008;entryDx=0;entryDy=0;entryPerimeter=0;" parent="1" source="hNPoDgTNuxjrgSZhUWBY-12" target="fKbLTwSa_AMhw6pHvxHb-57" edge="1">
          <mxGeometry width="50" height="50" relative="1" as="geometry">
            <mxPoint x="610" y="920" as="sourcePoint" />
            <mxPoint x="660" y="870" as="targetPoint" />
          </mxGeometry>
        </mxCell>
        <mxCell id="hNPoDgTNuxjrgSZhUWBY-31" value="TAKE PLACE AT" style="edgeLabel;html=1;align=center;verticalAlign=middle;resizable=0;points=[];" parent="hNPoDgTNuxjrgSZhUWBY-30" vertex="1" connectable="0">
          <mxGeometry x="-0.3152" y="-1" relative="1" as="geometry">
            <mxPoint as="offset" />
          </mxGeometry>
        </mxCell>
        <mxCell id="hNPoDgTNuxjrgSZhUWBY-32" value="" style="endArrow=classic;html=1;rounded=0;exitX=0;exitY=-0.333;exitDx=0;exitDy=0;exitPerimeter=0;entryX=0.01;entryY=0.011;entryDx=0;entryDy=0;entryPerimeter=0;" parent="1" source="fKbLTwSa_AMhw6pHvxHb-58" target="fKbLTwSa_AMhw6pHvxHb-21" edge="1">
          <mxGeometry width="50" height="50" relative="1" as="geometry">
            <mxPoint x="360" y="810" as="sourcePoint" />
            <mxPoint x="530" y="1060" as="targetPoint" />
            <Array as="points">
              <mxPoint x="40" y="960" />
              <mxPoint x="40" y="150" />
            </Array>
          </mxGeometry>
        </mxCell>
        <mxCell id="hNPoDgTNuxjrgSZhUWBY-33" value="ATTEND" style="edgeLabel;html=1;align=center;verticalAlign=middle;resizable=0;points=[];" parent="hNPoDgTNuxjrgSZhUWBY-32" vertex="1" connectable="0">
          <mxGeometry x="0.2572" y="-1" relative="1" as="geometry">
            <mxPoint y="1" as="offset" />
          </mxGeometry>
        </mxCell>
      </root>
    </mxGraphModel>
  </diagram>
</mxfile>
